<svg id="Capa_1" enable-background="new 0 0 500.432 500.432" height="512" viewBox="0 0 500.432 500.432" width="512" xmlns="http://www.w3.org/2000/svg"><g><path d="m262.514 49.215c28.962-48.086 91.422-63.589 139.508-34.627s63.589 91.422 34.627 139.508-106.995 89.445-155.081 60.483c-48.086-28.962-48.016-117.278-19.054-165.364z" fill="#f8e86a"/><path d="m237.918 49.215c-28.962-48.086-91.422-63.589-139.508-34.627s-63.589 91.422-34.627 139.508 106.995 89.445 155.081 60.483 48.016-117.278 19.054-165.364z" fill="#ffb3dd"/><path d="m363.116 348.904c-4.07-.747-7.982 1.95-8.729 6.025-8.511 46.432-37.029 79.518-59.455 99.098-14.376 12.552-28.172 21.336-37.216 26.499v-124.429c0-4.142-3.358-7.5-7.5-7.5s-7.5 3.358-7.5 7.5v124.429c-9.044-5.163-22.84-13.946-37.216-26.499-22.425-19.58-50.944-52.666-59.455-99.098-.747-4.075-4.656-6.771-8.729-6.025-4.074.747-6.772 4.655-6.025 8.729 7.382 40.272 29.76 77.624 64.716 108.018 26.141 22.729 49.909 33.57 51.116 34.113.001 0 .003.001.004.002.004.002.015.007.019.008 1.994.925 4.378.83 6.141 0 1.003-.45 24.878-11.29 51.139-34.123 34.956-30.394 57.334-67.746 64.716-108.018.746-4.074-1.952-7.983-6.026-8.729z" fill="#423e4f"/><path d="m285.914 364.231-4.954-25.964h-61.488l-4.954 25.964c-2.651 13.894 8 26.769 22.144 26.769h27.107c14.145 0 24.796-12.874 22.145-26.769z" fill="#f9496e"/><path d="m175.241 354.564-11.723-23.691-59.245 16.459 2.177 26.343c1.165 14.097 14.873 23.651 28.502 19.864l26.118-7.256c13.628-3.786 20.444-19.042 14.171-31.719z" fill="#00bcfc"/><path d="m90.488 84.28c0-25.457 4.695-49.918 13.327-72.722-1.819.952-3.623 1.957-5.405 3.03-48.086 28.962-63.589 91.422-34.627 139.508 14.821 24.608 42.495 47.449 72.429 60.011-28.789-36.624-45.724-81.432-45.724-129.827z" fill="#ff9dd3"/><path d="m201.313 202.061c-15.026-54.086-71.052-85.751-125.138-70.725s-85.75 71.052-70.724 125.138 79.131 114.833 133.217 99.807 77.671-100.134 62.645-154.22z" fill="#5bd6fd"/><path d="m325.191 354.564 11.723-23.691 59.245 16.459-2.177 26.343c-1.165 14.097-14.873 23.651-28.502 19.864l-26.118-7.256c-13.628-3.786-20.444-19.042-14.171-31.719z" fill="#00d6d3"/><path d="m299.118 202.061c15.026-54.086 71.052-85.751 125.138-70.725s85.751 71.052 70.725 125.138-79.131 114.833-133.217 99.807-77.671-100.134-62.646-154.22z" fill="#50e0e0"/><path d="m95.197 127.946c-6.321.518-12.684 1.629-19.021 3.39-54.086 15.025-85.751 71.052-70.725 125.138s79.131 114.833 133.217 99.807c33.527-9.314 55.328-45.559 63.483-84.65-54.425-32.393-93.883-83.735-106.954-143.685z" fill="#00c4fc"/><path d="m351.856 224.273c0 56.134-45.506 131.824-101.64 131.824s-101.64-75.689-101.64-131.824 45.506-101.64 101.64-101.64 101.64 45.505 101.64 101.64z" fill="#ff748f"/><g><g><path d="m192.956 244.193c-4.142 0-7.5-3.358-7.5-7.5v-11.003c0-4.142 3.358-7.5 7.5-7.5s7.5 3.358 7.5 7.5v11.003c0 4.142-3.357 7.5-7.5 7.5z" fill="#423e4f"/></g><g><path d="m307.475 244.193c-4.142 0-7.5-3.358-7.5-7.5v-11.003c0-4.142 3.358-7.5 7.5-7.5s7.5 3.358 7.5 7.5v11.003c0 4.142-3.358 7.5-7.5 7.5z" fill="#423e4f"/></g><g><path d="m250.216 250.743c-7.954 0-15.517-3.444-20.75-9.45-2.721-3.123-2.396-7.86.727-10.582 3.123-2.721 7.86-2.396 10.582.727 2.384 2.736 5.825 4.305 9.441 4.305 3.617 0 7.058-1.569 9.442-4.305 2.721-3.123 7.459-3.448 10.582-.727s3.448 7.459.727 10.582c-5.234 6.005-12.798 9.45-20.751 9.45z" fill="#423e4f"/></g></g><path d="m148.673 228.638c2.255 55.61 46.851 127.459 101.543 127.459 29.241 0 55.593-20.542 74.136-48.155-70.418-3.372-133.008-33.47-175.679-79.304z" fill="#fd5f7e"/></g></svg>